Coordinates
version=1
nRows=17
nColumns=24
inDegrees=yes

Units are S.I. units (second, meters, Newtons, ...)
Angles are in degrees.

endheader
time	pelvis_tilt	pelvis_list	pelvis_rotation	pelvis_tx	pelvis_ty	pelvis_tz	hip_flexion_r	hip_adduction_r	hip_rotation_r	knee_angle_r	ankle_angle_r	subtalar_angle_r	mtp_angle_r	hip_flexion_l	hip_adduction_l	hip_rotation_l	knee_angle_l	ankle_angle_l	subtalar_angle_l	mtp_angle_l	lumbar_extension	lumbar_bending	lumbar_rotation
      0.63500000	     23.85986986	     -0.33705911	     -1.54907860	     -0.69678877	      0.95775560	      0.01323116	    -44.22664973	      2.15452984	     -9.19707077	     -1.75334018	     13.25206611	      8.89073924	     17.78066984	     -6.83708400	      2.54156329	    -18.41397651	      2.37307931	      0.62930862	     17.27380179	     34.38190556	    -31.34377878	     -1.83871885	      1.55846873
      0.64000000	     23.86133413	     -0.30893704	     -1.68167760	     -0.69070812	      0.95725983	      0.01305012	    -44.34263331	      1.96249130	     -9.08583385	     -2.27274664	     13.26540183	      8.90071228	     17.83131800	     -6.89240578	      2.58590125	    -18.31348663	      1.90291744	      0.24661724	     16.42481885	     34.36139457	    -31.28561384	     -1.96544191	      1.57836165
      0.64500000	     23.82501464	     -0.25108550	     -1.75988011	     -0.68461774	      0.95677554	      0.01277074	    -44.39464224	      1.78237096	     -9.06320810	     -2.82889163	     13.19230212	      8.86387260	     18.11658894	     -6.90082271	      2.65583271	    -18.11139509	      1.40666670	     -0.19846539	     15.42883938	     34.45684556	    -31.18748016	     -2.09606353	      1.53262240
      0.65000000	     23.77153989	     -0.19965176	     -1.87087583	     -0.67852201	      0.95634969	      0.01249974	    -44.40052058	      1.57696495	     -8.97568984	     -3.42213715	     12.97387712	      8.80167019	     19.68685474	     -6.89291509	      2.72522781	    -18.00656401	      0.90741657	     -0.82793558	     14.42252218	     35.42156242	    -31.06832274	     -2.23187377	      1.51822210
      0.65500000	     23.78825705	     -0.13227796	     -2.00727809	     -0.67244425	      0.95608207	      0.01226129	    -44.45648551	      1.34059936	     -8.83989555	     -4.06326176	     12.89813280	      8.68955793	     19.88982329	     -6.99031781	      2.82284001	    -17.94046351	      0.44533701	     -1.42693652	     13.54422953	     35.34268100	    -31.02548982	     -2.40065705	      1.50833981
      0.66000000	     23.71167030	     -0.01100449	     -2.05505973	     -0.66631171	      0.95575643	      0.01188167	    -44.38516764	      1.11960827	     -8.86456838	     -4.75851450	     12.68428779	      8.58667365	     20.63638367	     -6.96498840	      2.96261842	    -17.71302589	     -0.06261780	     -2.01918068	     12.48864755	     35.50958704	    -30.87936821	     -2.58173851	      1.36961430
      0.66500000	     23.65559320	      0.07134697	     -2.12961105	     -0.66026096	      0.95554676	      0.01149443	    -44.26971443	      0.90406680	     -8.81406942	     -5.55549412	     12.39331383	      8.36279412	     22.55559053	     -6.96801780	      3.06432296	    -17.57543455	     -0.55495476	     -2.74220279	     11.61414087	     36.20333199	    -30.76466053	     -2.73044394	      1.32470251
      0.67000000	     23.64538244	      0.19524200	     -2.31293680	     -0.65407889	      0.95550062	      0.01130873	    -44.21290496	      0.58419959	     -8.64450278	     -6.33323913	     12.18283422	      8.21960836	     22.67455509	     -7.01137123	      3.21241898	    -17.73577879	     -1.12309441	     -3.27695167	     11.11407045	     36.12615048	    -30.67737649	     -2.98456894	      1.34636546
      0.67500000	     23.56985926	      0.29505960	     -2.32982893	     -0.64805747	      0.95542691	      0.01078633	    -43.99848736	      0.38330580	     -8.65078947	     -7.25461180	     11.65815153	      7.95469892	     25.25450753	     -7.00903850	      3.33351279	    -17.43287579	     -1.59298483	     -3.94957220	     10.06165749	     36.70462533	    -30.55159299	     -3.12065858	      1.20727977
      0.68000000	     23.56380797	      0.40565607	     -2.44707817	     -0.64202038	      0.95553388	      0.01046782	    -43.84559287	      0.11569240	     -8.45163408	     -8.20025472	     11.37691426	      7.64929039	     25.58335212	     -7.07112323	      3.46624351	    -17.38938023	     -2.12651322	     -4.47725357	      9.36097360	     36.61239613	    -30.49161451	     -3.32861574	      1.17437978
      0.68500000	     23.47580645	      0.58251153	     -2.43535502	     -0.63590769	      0.95558080	      0.00994184	    -43.57904689	     -0.12251067	     -8.48054615	     -9.18876526	     10.78382782	      7.28933681	     27.37022665	     -7.01816758	      3.64920203	    -17.12520677	     -2.71987224	     -4.87020092	      8.54328243	     36.64543494	    -30.34257065	     -3.53922721	      0.94703052
      0.69000000	     23.42971175	      0.70612746	     -2.52945229	     -0.62987041	      0.95577852	      0.00958899	    -43.26024604	     -0.39095227	     -8.34454262	    -10.34297253	     10.23135476	      6.78004925	     29.58334841	     -7.03969203	      3.78046009	    -17.05793452	     -3.27212664	     -5.22392977	      8.13560215	     36.58357804	    -30.24310911	     -3.75113384	      0.89491195
      0.69500000	     23.37063886	      0.80649620	     -2.63621821	     -0.62386169	      0.95603574	      0.00922391	    -42.86917309	     -0.65813849	     -8.18239347	    -11.60404939	      9.79580832	      6.51920163	     30.14419786	     -7.03065850	      3.88573976	    -17.01672417	     -3.87867493	     -5.44013314	      7.68760747	     36.43250186	    -30.13152705	     -3.94147196	      0.88977209
      0.70000000	     23.33251323	      1.01242780	     -2.63089582	     -0.61777702	      0.95633199	      0.00873401	    -42.51067600	     -0.92956533	     -8.20424077	    -12.82923574	      8.94592172	      5.89954147	     32.81729339	     -7.03720345	      4.08974182	    -16.79557064	     -4.51522336	     -5.46625629	      7.24999167	     35.89128757	    -30.04310996	     -4.19393649	      0.65677512
      0.70500000	     23.23162626	      1.09471241	     -2.76853938	     -0.61180114	      0.95666810	      0.00840058	    -41.94486042	     -1.20760329	     -7.97034525	    -14.30598704	      8.37584695	      5.54787146	     33.54397353	     -6.99630572	      4.17138572	    -16.78965562	     -5.12505951	     -5.47743170	      7.03803079	     35.65298844	    -29.88865839	     -4.37667453	      0.71699606
      0.71000000	     23.22887745	      1.32569592	     -2.80797067	     -0.60566621	      0.95710337	      0.00796914	    -41.52763344	     -1.54165021	     -8.00802927	    -15.67936412	      7.27370667	      4.84627997	     36.81468012	     -7.08751800	      4.41236209	    -16.62253490	     -5.70770805	     -5.25754575	      6.86708836	     34.54372882	    -29.82858591	     -4.67812883	      0.53391089
      0.71500000	     23.15248563	      1.48178149	     -2.89003542	     -0.59964910	      0.95753068	      0.00760635	    -40.92659987	     -1.84187278	     -7.89417103	    -17.22870790	      6.31623697	      4.20532461	     38.64565492	     -7.08318127	      4.56332483	    -16.53151981	     -6.33131630	     -4.97687322	      6.80818092	     33.65316787	    -29.69984311	     -4.92025490	      0.46496362
